# xmcd CD database file
#
# Track frame offsets:
#	150
#	24276
#	44870
#	66187
#	79719
#	105507
#	129246
#	159158
#	177055
#	205559
#	232941
#	243125
#	260105
#	280223
#	306098
#
# Disc length: 4324 seconds
#
# Revision: 0
# Processed by: cddbd v1.5.1PL0 Copyright (c) Steve Scherf et al.
# Submitted via: CDex 1.50
#
DISCID=ba10e20f
DTITLE=Rivet, Leadfoot Rivet - Saint Blues
DYEAR=1998
DGENRE=Blues
TTITLE0=Ta petite musique de nuit
TTITLE1=Un mec si triste
TTITLE2=Je nage en eau trouble
TTITLE3=Elle a pris le Cad'
TTITLE4=Thermo king
TTITLE5=Tout en haut du monde
TTITLE6=Les choses que je f'sais pour toi
TTITLE7=J'ai fait un chèque
TTITLE8=Depuis qu'tu t'en fous
TTITLE9=Tu deviens fou, Youssef
TTITLE10=Venteuilh blues
TTITLE11=Attention fragile
TTITLE12=Café salé
TTITLE13=On m'appelle le Boss
TTITLE14=J'carbure au Blues
EXTD=YEAR: 1998
EXTT0=
EXTT1=
EXTT2=
EXTT3=
EXTT4=
EXTT5=
EXTT6=
EXTT7=
EXTT8=
EXTT9=
EXTT10=
EXTT11=
EXTT12=
EXTT13=
EXTT14=
PLAYORDER=
